<svg width="181" height="48" viewBox="0 0 181 48" fill="none" xmlns="http://www.w3.org/2000/svg">
<path d="M67.2752 5.81805C68.8872 5.81805 70.1479 6.30372 71.0572 7.27505C71.9666 8.24638 72.4212 9.61038 72.4212 11.367V21.6281C72.4212 21.7314 72.3799 21.8244 72.2972 21.9071C72.2352 21.9691 72.1526 22 72.0492 22H68.4222C68.3189 22 68.2259 21.9691 68.1432 21.9071C68.0812 21.8244 68.0502 21.7314 68.0502 21.6281V12.328C68.0502 11.4807 67.8332 10.8091 67.3992 10.3131C66.9652 9.81705 66.3866 9.56905 65.6632 9.56905C64.9399 9.56905 64.3509 9.81705 63.8962 10.3131C63.4416 10.8091 63.2142 11.4704 63.2142 12.297V21.6281C63.2142 21.7314 63.1729 21.8244 63.0902 21.9071C63.0282 21.9691 62.9456 22 62.8422 22H59.2462C59.1429 22 59.0499 21.9691 58.9672 21.9071C58.9052 21.8244 58.8742 21.7314 58.8742 21.6281V12.328C58.8742 11.5014 58.6469 10.8401 58.1922 10.3441C57.7376 9.82738 57.1486 9.56905 56.4252 9.56905C55.7639 9.56905 55.2059 9.76538 54.7512 10.158C54.3172 10.5507 54.0589 11.0984 53.9762 11.801V21.6281C53.9762 21.7314 53.9349 21.8244 53.8522 21.9071C53.7902 21.9691 53.7076 22 53.6042 22H49.9772C49.8739 22 49.7809 21.9691 49.6982 21.9071C49.6362 21.8244 49.6052 21.7314 49.6052 21.6281V6.43805C49.6052 6.33472 49.6362 6.25205 49.6982 6.19005C49.7809 6.10738 49.8739 6.06605 49.9772 6.06605H53.6042C53.7076 6.06605 53.7902 6.10738 53.8522 6.19005C53.9349 6.25205 53.9762 6.33472 53.9762 6.43805V7.64705C53.9762 7.70905 53.9969 7.75038 54.0382 7.77105C54.0796 7.79172 54.1209 7.77105 54.1622 7.70905C55.0096 6.44838 56.3219 5.81805 58.0992 5.81805C59.1326 5.81805 60.0316 6.03505 60.7962 6.46905C61.5816 6.90305 62.1809 7.52305 62.5942 8.32905C62.6562 8.45305 62.7286 8.45305 62.8112 8.32905C63.2659 7.48172 63.8756 6.85138 64.6402 6.43805C65.4256 6.02472 66.3039 5.81805 67.2752 5.81805Z" fill="white"/>
<path d="M74.6997 28.169C74.6377 28.169 74.5861 28.1277 74.5447 28.0451C74.5034 27.9831 74.4827 27.9004 74.4827 27.7971V24.945C74.4827 24.8417 74.5137 24.7487 74.5757 24.666C74.6584 24.604 74.7514 24.5731 74.8547 24.5731C75.7227 24.5524 76.4047 24.48 76.9007 24.356C77.4174 24.232 77.8204 23.9944 78.1097 23.6431C78.4197 23.2917 78.6574 22.7751 78.8227 22.0931C78.8434 22.0517 78.8434 21.9897 78.8227 21.9071L73.7387 6.46905C73.7181 6.42772 73.7077 6.37605 73.7077 6.31405C73.7077 6.12805 73.8214 6.03505 74.0487 6.03505H77.9237C78.1511 6.03505 78.2957 6.13838 78.3577 6.34505L80.9617 16.389C80.9824 16.451 81.0134 16.4821 81.0547 16.4821C81.0961 16.4821 81.1271 16.451 81.1477 16.389L83.7517 6.34505C83.8137 6.13838 83.9584 6.03505 84.1857 6.03505H87.9677C88.0917 6.03505 88.1744 6.07638 88.2157 6.15905C88.2777 6.22105 88.2881 6.32438 88.2467 6.46905L82.8837 22.5891C82.3671 24.0977 81.8401 25.224 81.3027 25.968C80.7654 26.7327 80.0111 27.2907 79.0397 27.6421C78.0684 27.9934 76.6941 28.169 74.9167 28.169H74.6997Z" fill="white"/>
<path d="M104.643 10.3441C105.015 11.3981 105.201 12.638 105.201 14.064C105.201 15.49 105.004 16.7817 104.612 17.939C104.136 19.2617 103.382 20.3157 102.349 21.1011C101.336 21.8657 100.075 22.2481 98.5668 22.2481C97.0788 22.2481 95.9215 21.7314 95.0948 20.6981C95.0535 20.6361 95.0122 20.6154 94.9708 20.6361C94.9295 20.6567 94.9088 20.6981 94.9088 20.7601V27.3941C94.9088 27.4974 94.8675 27.5801 94.7848 27.6421C94.7228 27.7247 94.6402 27.766 94.5368 27.766H90.9098C90.8065 27.766 90.7135 27.7247 90.6308 27.6421C90.5688 27.5801 90.5378 27.4974 90.5378 27.3941V6.43805C90.5378 6.33472 90.5688 6.25205 90.6308 6.19005C90.7135 6.10738 90.8065 6.06605 90.9098 6.06605H94.5368C94.6402 6.06605 94.7228 6.10738 94.7848 6.19005C94.8675 6.25205 94.9088 6.33472 94.9088 6.43805V7.46105C94.9088 7.52305 94.9295 7.56438 94.9708 7.58505C95.0122 7.58505 95.0535 7.56438 95.0948 7.52305C95.9628 6.38638 97.1615 5.81805 98.6908 5.81805C100.117 5.81805 101.346 6.22105 102.38 7.02705C103.434 7.81238 104.188 8.91805 104.643 10.3441ZM99.8998 17.2881C100.416 16.4821 100.675 15.3867 100.675 14.002C100.675 12.7 100.458 11.6667 100.024 10.9021C99.5485 10.0134 98.7838 9.56905 97.7298 9.56905C96.7792 9.56905 96.0662 10.0134 95.5908 10.9021C95.1568 11.6461 94.9398 12.6897 94.9398 14.0331C94.9398 15.4177 95.1672 16.4924 95.6218 17.257C96.0972 18.0837 96.7998 18.4971 97.7298 18.4971C98.6598 18.4971 99.3832 18.0941 99.8998 17.2881Z" fill="white"/>
<path d="M114.979 22.2481C113.243 22.2481 111.755 21.7934 110.515 20.8841C109.275 19.9747 108.428 18.7347 107.973 17.1641C107.684 16.1927 107.539 15.1387 107.539 14.002C107.539 12.7827 107.684 11.6874 107.973 10.7161C108.448 9.18672 109.306 7.98805 110.546 7.12005C111.786 6.25205 113.274 5.81805 115.01 5.81805C116.705 5.81805 118.151 6.25205 119.35 7.12005C120.549 7.96738 121.396 9.15572 121.892 10.6851C122.223 11.7184 122.388 12.8034 122.388 13.94C122.388 15.056 122.243 16.0997 121.954 17.071C121.499 18.683 120.652 19.9541 119.412 20.8841C118.193 21.7934 116.715 22.2481 114.979 22.2481ZM114.979 18.4971C115.661 18.4971 116.24 18.2904 116.715 17.8771C117.19 17.4637 117.531 16.8954 117.738 16.172C117.903 15.5107 117.986 14.7874 117.986 14.002C117.986 13.134 117.903 12.4004 117.738 11.801C117.511 11.0984 117.159 10.5507 116.684 10.158C116.209 9.76538 115.63 9.56905 114.948 9.56905C114.245 9.56905 113.656 9.76538 113.181 10.158C112.726 10.5507 112.396 11.0984 112.189 11.801C112.024 12.297 111.941 13.0307 111.941 14.002C111.941 14.932 112.013 15.6554 112.158 16.172C112.365 16.8954 112.706 17.4637 113.181 17.8771C113.677 18.2904 114.276 18.4971 114.979 18.4971Z" fill="white"/>
<path d="M133.506 5.81805C135.159 5.81805 136.492 6.32438 137.505 7.33705C138.518 8.34972 139.024 9.72405 139.024 11.46V21.6281C139.024 21.7314 138.983 21.8244 138.9 21.9071C138.838 21.9691 138.755 22 138.652 22H135.025C134.922 22 134.829 21.9691 134.746 21.9071C134.684 21.8244 134.653 21.7314 134.653 21.6281V12.359C134.653 11.5324 134.415 10.8607 133.94 10.3441C133.485 9.82738 132.876 9.56905 132.111 9.56905C131.346 9.56905 130.726 9.82738 130.251 10.3441C129.796 10.8607 129.569 11.5324 129.569 12.359V21.6281C129.569 21.7314 129.528 21.8244 129.445 21.9071C129.383 21.9691 129.3 22 129.197 22H125.57C125.467 22 125.374 21.9691 125.291 21.9071C125.229 21.8244 125.198 21.7314 125.198 21.6281V6.43805C125.198 6.33472 125.229 6.25205 125.291 6.19005C125.374 6.10738 125.467 6.06605 125.57 6.06605H129.197C129.3 6.06605 129.383 6.10738 129.445 6.19005C129.528 6.25205 129.569 6.33472 129.569 6.43805V7.52305C129.569 7.58505 129.59 7.62638 129.631 7.64705C129.672 7.66772 129.703 7.65738 129.724 7.61605C130.571 6.41738 131.832 5.81805 133.506 5.81805Z" fill="white"/>
<path d="M151.949 0.67205C151.949 0.568716 151.98 0.48605 152.042 0.424049C152.125 0.341383 152.218 0.300049 152.321 0.300049H155.948C156.052 0.300049 156.134 0.341383 156.196 0.424049C156.279 0.48605 156.32 0.568716 156.32 0.67205V21.6281C156.32 21.7314 156.279 21.8244 156.196 21.9071C156.134 21.9691 156.052 22 155.948 22H152.321C152.218 22 152.125 21.9691 152.042 21.9071C151.98 21.8244 151.949 21.7314 151.949 21.6281V20.605C151.949 20.543 151.929 20.5121 151.887 20.5121C151.846 20.4914 151.805 20.5017 151.763 20.543C150.895 21.6797 149.707 22.2481 148.198 22.2481C146.752 22.2481 145.501 21.8451 144.447 21.0391C143.414 20.2331 142.67 19.1274 142.215 17.722C141.864 16.6474 141.688 15.3971 141.688 13.9711C141.688 12.5037 141.874 11.2224 142.246 10.127C142.722 8.80438 143.466 7.76072 144.478 6.99605C145.512 6.21072 146.783 5.81805 148.291 5.81805C149.779 5.81805 150.937 6.33472 151.763 7.36805C151.805 7.43005 151.846 7.45072 151.887 7.43005C151.929 7.40938 151.949 7.36805 151.949 7.30605V0.67205ZM151.298 17.1641C151.712 16.3994 151.918 15.3557 151.918 14.0331C151.918 12.6484 151.691 11.5634 151.236 10.7781C150.761 9.97205 150.069 9.56905 149.159 9.56905C148.188 9.56905 147.454 9.97205 146.958 10.7781C146.442 11.5841 146.183 12.6794 146.183 14.064C146.183 15.304 146.4 16.3374 146.834 17.1641C147.351 18.0527 148.116 18.4971 149.128 18.4971C150.058 18.4971 150.782 18.0527 151.298 17.1641Z" fill="white"/>
<path d="M54.6259 34.6581C55.3819 34.6581 56.0479 34.7901 56.6239 35.0541C57.1999 35.3181 57.6439 35.6841 57.9559 36.1521C58.2679 36.6081 58.4239 37.1301 58.4239 37.7181V43.7841C58.4239 43.8441 58.3999 43.8981 58.3519 43.9461C58.3159 43.9821 58.2679 44.0001 58.2079 44.0001H56.5519C56.4919 44.0001 56.4379 43.9821 56.3899 43.9461C56.3539 43.8981 56.3359 43.8441 56.3359 43.7841V43.2081C56.3359 43.1721 56.3239 43.1541 56.2999 43.1541C56.2759 43.1421 56.2519 43.1481 56.2279 43.1721C55.6399 43.8201 54.7879 44.1441 53.6719 44.1441C52.7719 44.1441 52.0279 43.9161 51.4399 43.4601C50.8639 43.0041 50.5759 42.3261 50.5759 41.4261C50.5759 40.4901 50.8999 39.7641 51.5479 39.2481C52.2079 38.7201 53.1319 38.4561 54.3199 38.4561H56.2459C56.3059 38.4561 56.3359 38.4261 56.3359 38.3661V37.9341C56.3359 37.4661 56.1979 37.1061 55.9219 36.8541C55.6459 36.5901 55.2319 36.4581 54.6799 36.4581C54.2239 36.4581 53.8519 36.5421 53.5639 36.7101C53.2879 36.8661 53.1139 37.0881 53.0419 37.3761C53.0059 37.5201 52.9219 37.5801 52.7899 37.5561L51.0439 37.3401C50.9839 37.3281 50.9299 37.3101 50.8819 37.2861C50.8459 37.2501 50.8339 37.2081 50.8459 37.1601C50.9419 36.4281 51.3319 35.8281 52.0159 35.3601C52.7119 34.8921 53.5819 34.6581 54.6259 34.6581ZM54.1939 42.4881C54.7819 42.4881 55.2859 42.3321 55.7059 42.0201C56.1259 41.7081 56.3359 41.3121 56.3359 40.8321V39.9861C56.3359 39.9261 56.3059 39.8961 56.2459 39.8961H54.7339C54.0979 39.8961 53.5939 40.0161 53.2219 40.2561C52.8619 40.4961 52.6819 40.8381 52.6819 41.2821C52.6819 41.6661 52.8199 41.9661 53.0959 42.1821C53.3839 42.3861 53.7499 42.4881 54.1939 42.4881Z" fill="white" fill-opacity="0.5"/>
<path d="M67.5437 44.1081C66.7877 44.1081 66.1217 44.0001 65.5457 43.7841C64.9817 43.5561 64.5437 43.2501 64.2317 42.8661C63.9197 42.4701 63.7637 42.0321 63.7637 41.5521V41.3901C63.7637 41.3301 63.7817 41.2821 63.8177 41.2461C63.8657 41.1981 63.9197 41.1741 63.9797 41.1741H65.5637C65.6237 41.1741 65.6717 41.1981 65.7077 41.2461C65.7557 41.2821 65.7797 41.3301 65.7797 41.3901V41.4261C65.7797 41.7261 65.9417 41.9901 66.2657 42.2181C66.6017 42.4341 67.0217 42.5421 67.5257 42.5421C68.0057 42.5421 68.3957 42.4461 68.6957 42.2541C68.9957 42.0501 69.1457 41.7981 69.1457 41.4981C69.1457 41.2221 69.0197 41.0181 68.7677 40.8861C68.5277 40.7421 68.1317 40.5921 67.5797 40.4361L66.8957 40.2201C66.2837 40.0401 65.7677 39.8481 65.3477 39.6441C64.9277 39.4401 64.5737 39.1641 64.2857 38.8161C63.9977 38.4561 63.8537 38.0001 63.8537 37.4481C63.8537 36.6081 64.1837 35.9421 64.8437 35.4501C65.5037 34.9461 66.3737 34.6941 67.4537 34.6941C68.1857 34.6941 68.8277 34.8141 69.3797 35.0541C69.9317 35.2821 70.3577 35.6061 70.6577 36.0261C70.9577 36.4341 71.1077 36.9021 71.1077 37.4301C71.1077 37.4901 71.0837 37.5441 71.0357 37.5921C70.9997 37.6281 70.9517 37.6461 70.8917 37.6461H69.3617C69.3017 37.6461 69.2477 37.6281 69.1997 37.5921C69.1637 37.5441 69.1457 37.4901 69.1457 37.4301C69.1457 37.1181 68.9897 36.8601 68.6777 36.6561C68.3777 36.4401 67.9637 36.3321 67.4357 36.3321C66.9677 36.3321 66.5837 36.4221 66.2837 36.6021C65.9957 36.7701 65.8517 37.0101 65.8517 37.3221C65.8517 37.6101 65.9897 37.8321 66.2657 37.9881C66.5537 38.1321 67.0277 38.2941 67.6877 38.4741L68.0837 38.5821C68.7197 38.7741 69.2537 38.9721 69.6857 39.1761C70.1177 39.3681 70.4837 39.6441 70.7837 40.0041C71.0837 40.3521 71.2337 40.8081 71.2337 41.3721C71.2337 42.2241 70.8977 42.8961 70.2257 43.3881C69.5537 43.8681 68.6597 44.1081 67.5437 44.1081Z" fill="white" fill-opacity="0.5"/>
<path d="M80.7947 37.1781C81.0107 37.7901 81.1187 38.5401 81.1187 39.4281C81.1187 40.2801 81.0167 41.0121 80.8127 41.6241C80.5487 42.4161 80.1227 43.0341 79.5347 43.4781C78.9587 43.9221 78.2267 44.1441 77.3387 44.1441C76.4867 44.1441 75.8027 43.8381 75.2867 43.2261C75.2627 43.2021 75.2387 43.1961 75.2147 43.2081C75.1907 43.2201 75.1787 43.2441 75.1787 43.2801V47.1861C75.1787 47.2461 75.1547 47.2941 75.1067 47.3301C75.0707 47.3781 75.0227 47.4021 74.9627 47.4021H73.3067C73.2467 47.4021 73.1927 47.3781 73.1447 47.3301C73.1087 47.2941 73.0907 47.2461 73.0907 47.1861V35.0181C73.0907 34.9581 73.1087 34.9101 73.1447 34.8741C73.1927 34.8261 73.2467 34.8021 73.3067 34.8021H74.9627C75.0227 34.8021 75.0707 34.8261 75.1067 34.8741C75.1547 34.9101 75.1787 34.9581 75.1787 35.0181V35.5581C75.1787 35.5941 75.1907 35.6181 75.2147 35.6301C75.2387 35.6421 75.2627 35.6301 75.2867 35.5941C75.8147 34.9701 76.5047 34.6581 77.3567 34.6581C78.2087 34.6581 78.9287 34.8801 79.5167 35.3241C80.1047 35.7681 80.5307 36.3861 80.7947 37.1781ZM78.4547 41.5881C78.8147 41.0361 78.9947 40.3041 78.9947 39.3921C78.9947 38.5161 78.8507 37.8261 78.5627 37.3221C78.2267 36.7341 77.7167 36.4401 77.0327 36.4401C76.4087 36.4401 75.9407 36.7281 75.6287 37.3041C75.3527 37.7721 75.2147 38.4681 75.2147 39.3921C75.2147 40.3401 75.3647 41.0601 75.6647 41.5521C75.9767 42.0801 76.4267 42.3441 77.0147 42.3441C77.6507 42.3441 78.1307 42.0921 78.4547 41.5881Z" fill="white" fill-opacity="0.5"/>
<path d="M86.6533 34.6581C87.4093 34.6581 88.0753 34.7901 88.6513 35.0541C89.2273 35.3181 89.6713 35.6841 89.9833 36.1521C90.2953 36.6081 90.4513 37.1301 90.4513 37.7181V43.7841C90.4513 43.8441 90.4273 43.8981 90.3793 43.9461C90.3433 43.9821 90.2953 44.0001 90.2353 44.0001H88.5793C88.5193 44.0001 88.4653 43.9821 88.4173 43.9461C88.3813 43.8981 88.3633 43.8441 88.3633 43.7841V43.2081C88.3633 43.1721 88.3513 43.1541 88.3273 43.1541C88.3033 43.1421 88.2793 43.1481 88.2553 43.1721C87.6673 43.8201 86.8153 44.1441 85.6993 44.1441C84.7993 44.1441 84.0553 43.9161 83.4673 43.4601C82.8913 43.0041 82.6033 42.3261 82.6033 41.4261C82.6033 40.4901 82.9273 39.7641 83.5753 39.2481C84.2353 38.7201 85.1593 38.4561 86.3473 38.4561H88.2733C88.3333 38.4561 88.3633 38.4261 88.3633 38.3661V37.9341C88.3633 37.4661 88.2253 37.1061 87.9493 36.8541C87.6733 36.5901 87.2593 36.4581 86.7073 36.4581C86.2513 36.4581 85.8793 36.5421 85.5913 36.7101C85.3153 36.8661 85.1413 37.0881 85.0693 37.3761C85.0333 37.5201 84.9493 37.5801 84.8173 37.5561L83.0713 37.3401C83.0113 37.3281 82.9573 37.3101 82.9093 37.2861C82.8733 37.2501 82.8613 37.2081 82.8733 37.1601C82.9693 36.4281 83.3593 35.8281 84.0433 35.3601C84.7393 34.8921 85.6093 34.6581 86.6533 34.6581ZM86.2213 42.4881C86.8093 42.4881 87.3133 42.3321 87.7333 42.0201C88.1533 41.7081 88.3633 41.3121 88.3633 40.8321V39.9861C88.3633 39.9261 88.3333 39.8961 88.2733 39.8961H86.7613C86.1253 39.8961 85.6213 40.0161 85.2493 40.2561C84.8893 40.4961 84.7093 40.8381 84.7093 41.2821C84.7093 41.6661 84.8473 41.9661 85.1233 42.1821C85.4113 42.3861 85.7773 42.4881 86.2213 42.4881Z" fill="white" fill-opacity="0.5"/>
<path d="M96.3816 44.1441C95.4576 44.1441 94.6596 43.9101 93.9876 43.4421C93.3156 42.9621 92.8476 42.3201 92.5836 41.5161C92.3916 40.9761 92.2956 40.2561 92.2956 39.3561C92.2956 38.4921 92.3916 37.7841 92.5836 37.2321C92.8356 36.4401 93.2976 35.8161 93.9696 35.3601C94.6536 34.8921 95.4576 34.6581 96.3816 34.6581C97.3176 34.6581 98.1336 34.8921 98.8296 35.3601C99.5256 35.8281 99.9876 36.4161 100.216 37.1241C100.276 37.3161 100.318 37.5081 100.342 37.7001V37.7361C100.342 37.8561 100.276 37.9281 100.144 37.9521L98.5236 38.1861H98.4876C98.3796 38.1861 98.3076 38.1261 98.2716 38.0061C98.2716 37.9461 98.2656 37.8981 98.2536 37.8621C98.2296 37.7661 98.2056 37.6821 98.1816 37.6101C98.0736 37.2741 97.8576 36.9981 97.5336 36.7821C97.2096 36.5661 96.8256 36.4581 96.3816 36.4581C95.9256 36.4581 95.5356 36.5781 95.2116 36.8181C94.8996 37.0461 94.6896 37.3641 94.5816 37.7721C94.4616 38.1561 94.4016 38.6901 94.4016 39.3741C94.4016 40.0341 94.4556 40.5681 94.5636 40.9761C94.6836 41.3961 94.8996 41.7321 95.2116 41.9841C95.5236 42.2241 95.9136 42.3441 96.3816 42.3441C96.8376 42.3441 97.2276 42.2301 97.5516 42.0021C97.8876 41.7621 98.1036 41.4441 98.1996 41.0481C98.2116 41.0241 98.2176 40.9941 98.2176 40.9581C98.2296 40.9461 98.2356 40.9281 98.2356 40.9041C98.2716 40.7601 98.3556 40.7001 98.4876 40.7241L100.108 40.9761C100.168 40.9881 100.216 41.0181 100.252 41.0661C100.3 41.1021 100.318 41.1561 100.306 41.2281C100.27 41.4201 100.24 41.5581 100.216 41.6421C99.9876 42.4101 99.5256 43.0221 98.8296 43.4781C98.1336 43.9221 97.3176 44.1441 96.3816 44.1441Z" fill="white" fill-opacity="0.5"/>
<path d="M109.78 38.3661C109.828 38.6661 109.852 39.0021 109.852 39.3741L109.834 39.9321C109.834 40.0761 109.762 40.1481 109.618 40.1481H103.984C103.924 40.1481 103.894 40.1781 103.894 40.2381C103.93 40.6341 103.984 40.9041 104.056 41.0481C104.344 41.9121 105.046 42.3501 106.162 42.3621C106.978 42.3621 107.626 42.0261 108.106 41.3541C108.154 41.2821 108.214 41.2461 108.286 41.2461C108.334 41.2461 108.376 41.2641 108.412 41.3001L109.528 42.2181C109.636 42.3021 109.654 42.3981 109.582 42.5061C109.21 43.0341 108.712 43.4421 108.088 43.7301C107.476 44.0181 106.792 44.1621 106.036 44.1621C105.1 44.1621 104.302 43.9521 103.642 43.5321C102.994 43.1121 102.52 42.5241 102.22 41.7681C101.944 41.1201 101.806 40.2201 101.806 39.0681C101.806 38.3721 101.878 37.8081 102.022 37.3761C102.262 36.5361 102.712 35.8761 103.372 35.3961C104.044 34.9041 104.848 34.6581 105.784 34.6581C108.148 34.6581 109.48 35.8941 109.78 38.3661ZM105.784 36.4581C105.34 36.4581 104.968 36.5721 104.668 36.8001C104.38 37.0161 104.176 37.3221 104.056 37.7181C103.984 37.9221 103.936 38.1861 103.912 38.5101C103.888 38.5701 103.912 38.6001 103.984 38.6001H107.638C107.698 38.6001 107.728 38.5701 107.728 38.5101C107.704 38.2101 107.668 37.9821 107.62 37.8261C107.512 37.3941 107.296 37.0581 106.972 36.8181C106.66 36.5781 106.264 36.4581 105.784 36.4581Z" fill="white" fill-opacity="0.5"/>
<path d="M120.152 34.7841C120.212 34.7841 120.26 34.8081 120.296 34.8561C120.344 34.8921 120.368 34.9401 120.368 35.0001V36.4221C120.368 36.4821 120.344 36.5361 120.296 36.5841C120.26 36.6201 120.212 36.6381 120.152 36.6381H118.37C118.31 36.6381 118.28 36.6681 118.28 36.7281V43.7841C118.28 43.8441 118.256 43.8981 118.208 43.9461C118.172 43.9821 118.124 44.0001 118.064 44.0001H116.408C116.348 44.0001 116.294 43.9821 116.246 43.9461C116.21 43.8981 116.192 43.8441 116.192 43.7841V36.7281C116.192 36.6681 116.162 36.6381 116.102 36.6381H114.986C114.926 36.6381 114.872 36.6201 114.824 36.5841C114.788 36.5361 114.77 36.4821 114.77 36.4221V35.0001C114.77 34.9401 114.788 34.8921 114.824 34.8561C114.872 34.8081 114.926 34.7841 114.986 34.7841H116.102C116.162 34.7841 116.192 34.7541 116.192 34.6941V34.3701C116.192 33.5901 116.294 32.9901 116.498 32.5701C116.702 32.1381 117.038 31.8321 117.506 31.6521C117.974 31.4721 118.634 31.3881 119.486 31.4001H120.116C120.176 31.4001 120.224 31.4241 120.26 31.4721C120.308 31.5081 120.332 31.5561 120.332 31.6161V32.8761C120.332 32.9361 120.308 32.9901 120.26 33.0381C120.224 33.0741 120.176 33.0921 120.116 33.0921H119.648C119.132 33.0921 118.772 33.1941 118.568 33.3981C118.376 33.6021 118.28 33.9741 118.28 34.5141V34.6941C118.28 34.7541 118.31 34.7841 118.37 34.7841H120.152Z" fill="white" fill-opacity="0.5"/>
<path d="M125.387 44.1441C124.439 44.1441 123.623 43.9041 122.939 43.4241C122.267 42.9441 121.793 42.2781 121.517 41.4261C121.313 40.7781 121.211 40.0941 121.211 39.3741C121.211 38.6061 121.307 37.9221 121.499 37.3221C121.775 36.4821 122.255 35.8281 122.939 35.3601C123.623 34.8921 124.445 34.6581 125.405 34.6581C126.317 34.6581 127.103 34.8921 127.763 35.3601C128.435 35.8281 128.909 36.4761 129.185 37.3041C129.401 37.8801 129.509 38.5641 129.509 39.3561C129.509 40.1121 129.407 40.7961 129.203 41.4081C128.927 42.2601 128.453 42.9321 127.781 43.4241C127.109 43.9041 126.311 44.1441 125.387 44.1441ZM125.387 42.3441C125.831 42.3441 126.209 42.2181 126.521 41.9661C126.845 41.7141 127.079 41.3601 127.223 40.9041C127.343 40.5081 127.403 40.0041 127.403 39.3921C127.403 38.7441 127.343 38.2401 127.223 37.8801C127.091 37.4241 126.863 37.0761 126.539 36.8361C126.215 36.5841 125.819 36.4581 125.351 36.4581C124.907 36.4581 124.523 36.5841 124.199 36.8361C123.875 37.0761 123.641 37.4241 123.497 37.8801C123.377 38.3001 123.317 38.8041 123.317 39.3921C123.317 39.9801 123.377 40.4841 123.497 40.9041C123.629 41.3601 123.857 41.7141 124.181 41.9661C124.517 42.2181 124.919 42.3441 125.387 42.3441Z" fill="white" fill-opacity="0.5"/>
<path d="M135.767 34.6941C136.151 34.6941 136.487 34.7721 136.775 34.9281C136.871 34.9761 136.907 35.0661 136.883 35.1981L136.577 36.8181C136.565 36.9621 136.481 37.0041 136.325 36.9441C136.145 36.8841 135.935 36.8541 135.695 36.8541C135.539 36.8541 135.419 36.8601 135.335 36.8721C134.831 36.8961 134.411 37.0761 134.075 37.4121C133.739 37.7361 133.571 38.1621 133.571 38.6901V43.7841C133.571 43.8441 133.547 43.8981 133.499 43.9461C133.463 43.9821 133.415 44.0001 133.355 44.0001H131.699C131.639 44.0001 131.585 43.9821 131.537 43.9461C131.501 43.8981 131.483 43.8441 131.483 43.7841V35.0181C131.483 34.9581 131.501 34.9101 131.537 34.8741C131.585 34.8261 131.639 34.8021 131.699 34.8021H133.355C133.415 34.8021 133.463 34.8261 133.499 34.8741C133.547 34.9101 133.571 34.9581 133.571 35.0181V35.8281C133.571 35.8761 133.577 35.9061 133.589 35.9181C133.613 35.9181 133.637 35.9001 133.661 35.8641C134.165 35.0841 134.867 34.6941 135.767 34.6941Z" fill="white" fill-opacity="0.5"/>
<path d="M149.378 31.6161C149.378 31.5561 149.396 31.5081 149.432 31.4721C149.48 31.4241 149.534 31.4001 149.594 31.4001H151.25C151.31 31.4001 151.358 31.4241 151.394 31.4721C151.442 31.5081 151.466 31.5561 151.466 31.6161V43.7841C151.466 43.8441 151.442 43.8981 151.394 43.9461C151.358 43.9821 151.31 44.0001 151.25 44.0001H149.648C149.528 44.0001 149.444 43.9521 149.396 43.8561L144.212 35.3601C144.188 35.3241 144.164 35.3121 144.14 35.3241C144.116 35.3241 144.104 35.3481 144.104 35.3961L144.14 43.7841C144.14 43.8441 144.116 43.8981 144.068 43.9461C144.032 43.9821 143.984 44.0001 143.924 44.0001H142.268C142.208 44.0001 142.154 43.9821 142.106 43.9461C142.07 43.8981 142.052 43.8441 142.052 43.7841V31.6161C142.052 31.5561 142.07 31.5081 142.106 31.4721C142.154 31.4241 142.208 31.4001 142.268 31.4001H143.87C143.99 31.4001 144.074 31.4481 144.122 31.5441L149.288 40.0401C149.312 40.0761 149.336 40.0941 149.36 40.0941C149.384 40.0821 149.396 40.0521 149.396 40.0041L149.378 31.6161Z" fill="white" fill-opacity="0.5"/>
<path d="M162.449 32.9841C162.449 33.0441 162.425 33.0981 162.377 33.1461C162.341 33.1821 162.293 33.2001 162.233 33.2001H156.113C156.053 33.2001 156.023 33.2301 156.023 33.2901V36.6561C156.023 36.7161 156.053 36.7461 156.113 36.7461H160.235C160.295 36.7461 160.343 36.7701 160.379 36.8181C160.427 36.8541 160.451 36.9021 160.451 36.9621V38.3301C160.451 38.3901 160.427 38.4441 160.379 38.4921C160.343 38.5281 160.295 38.5461 160.235 38.5461H156.113C156.053 38.5461 156.023 38.5761 156.023 38.6361V43.7841C156.023 43.8441 155.999 43.8981 155.951 43.9461C155.915 43.9821 155.867 44.0001 155.807 44.0001H154.151C154.091 44.0001 154.037 43.9821 153.989 43.9461C153.953 43.8981 153.935 43.8441 153.935 43.7841V31.6161C153.935 31.5561 153.953 31.5081 153.989 31.4721C154.037 31.4241 154.091 31.4001 154.151 31.4001H162.233C162.293 31.4001 162.341 31.4241 162.377 31.4721C162.425 31.5081 162.449 31.5561 162.449 31.6161V32.9841Z" fill="white" fill-opacity="0.5"/>
<path d="M172.358 31.4001C172.418 31.4001 172.466 31.4241 172.502 31.4721C172.55 31.5081 172.574 31.5561 172.574 31.6161V33.0021C172.574 33.0621 172.55 33.1161 172.502 33.1641C172.466 33.2001 172.418 33.2181 172.358 33.2181H169.046C168.986 33.2181 168.956 33.2481 168.956 33.3081V43.7841C168.956 43.8441 168.932 43.8981 168.884 43.9461C168.848 43.9821 168.8 44.0001 168.74 44.0001H167.084C167.024 44.0001 166.97 43.9821 166.922 43.9461C166.886 43.8981 166.868 43.8441 166.868 43.7841V33.3081C166.868 33.2481 166.838 33.2181 166.778 33.2181H163.592C163.532 33.2181 163.478 33.2001 163.43 33.1641C163.394 33.1161 163.376 33.0621 163.376 33.0021V31.6161C163.376 31.5561 163.394 31.5081 163.43 31.4721C163.478 31.4241 163.532 31.4001 163.592 31.4001H172.358Z" fill="white" fill-opacity="0.5"/>
<path d="M176.704 44.1081C175.948 44.1081 175.282 44.0001 174.706 43.7841C174.142 43.5561 173.704 43.2501 173.392 42.8661C173.08 42.4701 172.924 42.0321 172.924 41.5521V41.3901C172.924 41.3301 172.942 41.2821 172.978 41.2461C173.026 41.1981 173.08 41.1741 173.14 41.1741H174.724C174.784 41.1741 174.832 41.1981 174.868 41.2461C174.916 41.2821 174.94 41.3301 174.94 41.3901V41.4261C174.94 41.7261 175.102 41.9901 175.426 42.2181C175.762 42.4341 176.182 42.5421 176.686 42.5421C177.166 42.5421 177.556 42.4461 177.856 42.2541C178.156 42.0501 178.306 41.7981 178.306 41.4981C178.306 41.2221 178.18 41.0181 177.928 40.8861C177.688 40.7421 177.292 40.5921 176.74 40.4361L176.056 40.2201C175.444 40.0401 174.928 39.8481 174.508 39.6441C174.088 39.4401 173.734 39.1641 173.446 38.8161C173.158 38.4561 173.014 38.0001 173.014 37.4481C173.014 36.6081 173.344 35.9421 174.004 35.4501C174.664 34.9461 175.534 34.6941 176.614 34.6941C177.346 34.6941 177.988 34.8141 178.54 35.0541C179.092 35.2821 179.518 35.6061 179.818 36.0261C180.118 36.4341 180.268 36.9021 180.268 37.4301C180.268 37.4901 180.244 37.5441 180.196 37.5921C180.16 37.6281 180.112 37.6461 180.052 37.6461H178.522C178.462 37.6461 178.408 37.6281 178.36 37.5921C178.324 37.5441 178.306 37.4901 178.306 37.4301C178.306 37.1181 178.15 36.8601 177.838 36.6561C177.538 36.4401 177.124 36.3321 176.596 36.3321C176.128 36.3321 175.744 36.4221 175.444 36.6021C175.156 36.7701 175.012 37.0101 175.012 37.3221C175.012 37.6101 175.15 37.8321 175.426 37.9881C175.714 38.1321 176.188 38.2941 176.848 38.4741L177.244 38.5821C177.88 38.7741 178.414 38.9721 178.846 39.1761C179.278 39.3681 179.644 39.6441 179.944 40.0041C180.244 40.3521 180.394 40.8081 180.394 41.3721C180.394 42.2241 180.058 42.8961 179.386 43.3881C178.714 43.8681 177.82 44.1081 176.704 44.1081Z" fill="white" fill-opacity="0.5"/>
<path d="M17.3079 16.2696C17.3079 15.4222 17.7464 14.6351 18.467 14.189L22.5936 11.6349C26.1919 9.40768 30.7404 9.40768 34.3387 11.6349L38.4653 14.189C39.1859 14.6351 39.6244 15.4222 39.6244 16.2696V16.2696C39.6244 18.1867 37.5198 19.3592 35.8897 18.3503L31.3272 15.5263C29.5741 14.4412 27.3581 14.4412 25.6051 15.5263L21.0426 18.3503C19.4125 19.3592 17.3079 18.1867 17.3079 16.2696V16.2696Z" fill="white"/>
<path d="M17.3079 25.9387C17.3079 25.0913 17.7464 24.3041 18.467 23.8581L22.5936 21.3039C26.1919 19.0767 30.7404 19.0767 34.3387 21.3039L38.4653 23.8581C39.1859 24.3041 39.6244 25.0913 39.6244 25.9387V25.9387C39.6244 27.8558 37.5198 29.0283 35.8897 28.0193L31.3272 25.1953C29.5741 24.1103 27.3581 24.1103 25.6051 25.1953L21.0426 28.0193C19.4125 29.0283 17.3079 27.8558 17.3079 25.9387V25.9387Z" fill="white"/>
<path d="M17.3079 35.6078C17.3079 34.7603 17.7464 33.9732 18.467 33.5272L22.5936 30.973C26.1919 28.7458 30.7404 28.7458 34.3387 30.973L38.4653 33.5272C39.1859 33.9732 39.6244 34.7603 39.6244 35.6078V35.6078C39.6244 37.5249 37.5198 38.6974 35.8897 37.6884L31.3272 34.8644C29.5741 33.7793 27.3581 33.7793 25.6051 34.8644L21.0426 37.6884C19.4125 38.6974 17.3079 37.5249 17.3079 35.6078V35.6078Z" fill="white"/>
<path d="M0 16.2696C0 15.4222 0.438507 14.6351 1.1591 14.189L5.2857 11.6349C8.884 9.40768 13.4325 9.40768 17.0308 11.6349L21.1574 14.189C21.878 14.6351 22.3165 15.4222 22.3165 16.2696V16.2696C22.3165 18.1867 20.2119 19.3592 18.5818 18.3503L14.0193 15.5263C12.2663 14.4412 10.0503 14.4412 8.29722 15.5263L3.73471 18.3503C2.1046 19.3592 0 18.1867 0 16.2696V16.2696Z" fill="white"/>
<path d="M0 25.9387C0 25.0913 0.438507 24.3041 1.1591 23.8581L5.2857 21.3039C8.884 19.0767 13.4325 19.0767 17.0308 21.3039L21.1574 23.8581C21.878 24.3041 22.3165 25.0913 22.3165 25.9387V25.9387C22.3165 27.8558 20.2119 29.0283 18.5818 28.0193L14.0193 25.1953C12.2663 24.1103 10.0503 24.1103 8.29722 25.1953L3.73471 28.0193C2.1046 29.0283 0 27.8558 0 25.9387V25.9387Z" fill="white"/>
<path d="M0 35.6078C0 34.7603 0.438507 33.9732 1.1591 33.5272L5.2857 30.973C8.884 28.7458 13.4325 28.7458 17.0308 30.973L21.1574 33.5272C21.878 33.9732 22.3165 34.7603 22.3165 35.6078V35.6078C22.3165 37.5249 20.2119 38.6974 18.5818 37.6884L14.0193 34.8644C12.2663 33.7793 10.0503 33.7793 8.29722 34.8644L3.73471 37.6884C2.1046 38.6974 0 37.5249 0 35.6078V35.6078Z" fill="white"/>
</svg>
